<svg width="16" height="17" viewBox="0 0 16 17" fill="none" xmlns="http://www.w3.org/2000/svg">
<path d="M14.75 11.1594C14.3578 11.1594 13.9656 11.2729 13.625 11.5C12.9438 11.9542 12.0562 11.9542 11.375 11.5C10.6938 11.0458 9.80625 11.0458 9.125 11.5C8.44375 11.9542 7.55625 11.9542 6.875 11.5C6.19375 11.0458 5.30625 11.0458 4.625 11.5C3.94375 11.9542 3.05625 11.9542 2.375 11.5C2.03438 11.2729 1.64219 11.1594 1.25 11.1594M5.75 4V5.5M8 4V5.5M10.25 4V5.5M5.75 1.75H5.7575M8 1.75H8.0075M10.25 1.75H10.2575M14.75 15.25V10C14.75 9.17157 14.0784 8.5 13.25 8.5H2.75C1.92157 8.5 1.25 9.17157 1.25 10V15.25H14.75ZM12.5 8.5V7C12.5 6.17157 11.8284 5.5 11 5.5H5C4.17157 5.5 3.5 6.17157 3.5 7V8.5H12.5Z" stroke="#9D9D9D" stroke-width="2" stroke-linecap="round" stroke-linejoin="round"/>
</svg>
